<svg width="227" height="51" viewBox="0 0 227 51" fill="none" xmlns="http://www.w3.org/2000/svg">
<path d="M69.9536 12.3946C69.9536 14.8389 68.1471 16.8131 65.3479 16.8131C62.8044 16.8131 60.8359 14.8943 60.8359 12.4538C60.8359 9.88634 62.8508 8.09448 65.3952 8.09448C67.9396 8.09448 69.9536 9.95403 69.9536 12.3946ZM65.3943 15.1698C66.9052 15.1698 67.9804 13.9542 67.9804 12.4547C67.9804 10.9552 67.016 9.74062 65.3943 9.74062C63.8047 9.74062 62.8082 10.9552 62.8082 12.4547C62.8082 13.9542 63.8739 15.1698 65.3943 15.1698Z" fill="white"/>
<path d="M92.0551 12.3946C92.0551 14.8389 90.2486 16.8131 87.4494 16.8131C84.906 16.8131 82.9375 14.8943 82.9375 12.4538C82.9375 9.88634 84.9524 8.09448 87.4958 8.09448C90.0393 8.09448 92.0551 9.95403 92.0551 12.3946ZM87.4958 15.1698C89.0058 15.1698 90.0819 13.9542 90.0819 12.4547C90.0819 10.9552 89.1176 9.74062 87.4958 9.74062C85.9063 9.74062 84.9097 10.9552 84.9097 12.4547C84.9097 13.9542 85.9754 15.1698 87.4958 15.1698Z" fill="white"/>
<path d="M102.111 13.2643V9.06011C102.271 7.85112 103.987 8.49604 103.987 8.49604V13.002C103.987 14.4075 104.957 15.0947 106.153 15.0947C107.35 15.0947 108.319 14.4319 108.319 13.002C108.319 13.002 108.324 9.92407 108.319 9.06011C108.479 7.85112 110.195 8.49604 110.195 8.49604V11.3935C110.439 14.9659 113.88 15.231 113.88 15.231C117.308 15.7011 117.006 14.305 117.006 14.305C116.918 13.6027 116.39 13.4429 115.478 13.3273C114.91 13.2549 114.42 13.206 114.42 13.206C110.748 12.9757 111.105 10.5737 111.105 10.5737C111.152 8.53928 113.345 8.22999 113.345 8.22999C115.282 7.88779 116.651 8.22341 116.651 8.22341C119.666 8.8467 118.182 10.2644 117.933 10.3452C117.933 10.3452 117.129 9.61571 115.251 9.51042C112.937 9.36376 112.978 10.4505 112.978 10.4505C112.903 11.2412 113.925 11.3906 113.925 11.3906L116.405 11.7357C119.339 12.1371 118.979 14.1959 118.979 14.1959C118.789 16.7756 115.69 16.7944 115.69 16.7944C111.453 17.0379 109.859 14.855 109.859 14.855C109.265 16.0273 108.08 16.8104 106.111 16.8104C103.763 16.8104 102.107 15.5046 102.107 13.1599" fill="white"/>
<path d="M74.5848 8.23371C71.1973 8.47344 70.4243 11.5984 70.5067 12.5065C70.4594 13.8791 71.4266 16.8141 75.1683 16.816C75.6236 16.8106 76.0777 16.7675 76.5258 16.6872V15.0223C76.0919 15.0922 75.6534 15.1302 75.2138 15.136C73.468 15.1793 72.4752 13.7578 72.4818 12.5037C72.4837 12.1519 72.5563 11.8039 72.6953 11.4803C72.8342 11.1566 73.0368 10.8636 73.2912 10.6186C73.5455 10.3735 73.8466 10.1812 74.1767 10.0529C74.5068 9.92458 74.8594 9.86288 75.2138 9.87139H78.2404L78.248 13.9844C78.248 13.9844 78.0301 17.4684 82.4681 16.737V15.0796C80.0042 15.6061 80.1397 14.069 80.1397 14.069V9.87609H82.4681V8.23089H80.1397V6.28955H78.2451V8.23089L74.5848 8.23371Z" fill="white"/>
<path d="M94.4899 19.3141C94.3298 20.5231 92.6143 19.8782 92.6143 19.8782V12.455C92.7222 10.0878 94.1498 8.1606 97.0873 8.09574C99.681 8.03839 101.54 9.95434 101.56 12.3949C101.577 14.9821 99.7502 16.9074 97.0504 16.7908C96.088 16.7382 95.1473 16.3622 94.4927 15.5339C94.4975 15.5339 94.4899 18.4501 94.4899 19.3141ZM97.039 15.1776C98.5338 15.1776 99.5967 13.963 99.5967 12.4635C99.5967 10.964 98.6418 9.74846 97.039 9.74846C95.4646 9.74846 94.4814 10.964 94.4814 12.4635C94.4814 13.963 95.5338 15.1776 97.039 15.1776Z" fill="white"/>
<path d="M73.1682 36.5365C73.1682 34.9769 72.6861 33.4426 71.842 32.3286C70.8388 31.0002 69.3933 30.2989 67.6607 30.2989C66.8876 30.2909 66.1215 30.4444 65.4121 30.7494C64.7026 31.0544 64.0658 31.504 63.5428 32.0691C62.5008 33.1973 61.9268 34.7513 61.9268 36.4454V36.4905C61.9268 40.078 64.4352 42.6821 67.8947 42.6821C69.829 42.6821 71.5948 41.742 72.7391 40.1024L72.8736 39.9144L72.0997 39.3719L71.9633 39.5599C70.9876 40.9147 69.4369 41.757 67.9174 41.757C67.2761 41.7642 66.6396 41.6453 66.0447 41.4073C65.4499 41.1693 64.9083 40.8169 64.4513 40.3703C63.5514 39.48 63.0304 38.2692 62.9432 36.8618H73.1739L73.1682 36.5365ZM67.6361 31.224C68.2576 31.2149 68.8732 31.3455 69.4367 31.606C70.0002 31.8665 70.497 32.2501 70.89 32.7281C71.6137 33.5855 72.0599 34.7306 72.1508 35.9631H62.9423C63.1507 33.1662 65.0708 31.224 67.6361 31.224Z" fill="white"/>
<path d="M76.7186 25.3435H75.7637V42.4094H76.7186V25.3435Z" fill="white"/>
<path d="M90.6233 36.5366C90.6233 34.9769 90.1411 33.4426 89.2971 32.3286C88.2948 31.0002 86.8493 30.2989 85.1167 30.2989C84.3436 30.2908 83.5774 30.4442 82.868 30.7491C82.1585 31.0541 81.5217 31.5039 80.9989 32.0691C79.9568 33.1973 79.3818 34.7522 79.3818 36.4454V36.4905C79.3818 40.078 81.8902 42.6821 85.3497 42.6821C87.2831 42.6821 89.0498 41.742 90.196 40.1015L90.3277 39.9134L89.5547 39.371L89.4183 39.559C88.4426 40.9137 86.8929 41.7561 85.3734 41.7561C84.732 41.7634 84.0955 41.6447 83.5006 41.4067C82.9057 41.1687 82.3642 40.8162 81.9073 40.3694C81.0083 39.4801 80.4864 38.2682 80.3983 36.8609H90.6289L90.6233 36.5366ZM80.3983 35.9603C80.6057 33.1662 82.5249 31.224 85.0949 31.224C85.7165 31.2149 86.332 31.3456 86.8955 31.606C87.459 31.8665 87.9559 32.2501 88.3488 32.7281C89.0726 33.5855 89.5187 34.7306 89.6097 35.9631L80.3983 35.9603Z" fill="white"/>
<path d="M103.358 40.1776L103.211 40.3478C101.859 41.9187 100.274 42.6821 98.3581 42.6821C95.0066 42.6821 92.2794 39.9144 92.2794 36.513V36.4679C92.2715 34.8493 92.9007 33.2916 94.0328 32.1265C94.595 31.5455 95.2704 31.0839 96.0178 30.7697C96.7652 30.4556 97.5692 30.2954 98.3808 30.2989C100.737 30.2989 102.106 31.4045 103.134 32.4865L103.298 32.6586L102.607 33.2988L102.446 33.1277C101.214 31.8285 99.9202 31.224 98.3581 31.224C97.6771 31.2207 97.0027 31.3563 96.3766 31.6223C95.7506 31.8883 95.1863 32.2791 94.7186 32.7704C93.7721 33.7625 93.2485 35.0792 93.257 36.4454V36.4905C93.257 39.3945 95.556 41.7551 98.3808 41.7551C99.9675 41.7551 101.28 41.1083 102.509 39.7207L102.67 39.5383L103.358 40.1776Z" fill="white"/>
<path d="M107.043 31.4739V39.2186C107.043 40.3467 107.428 41.6892 109.258 41.6892C109.826 41.6861 110.385 41.5543 110.893 41.3038L111.236 41.1345V42.1687L111.097 42.2316C110.519 42.4904 109.892 42.6215 109.258 42.6161C107.244 42.6161 106.09 41.394 106.09 39.2665V31.4739H104.279V30.5724H106.096V26.6389H107.043V30.5724H111.282V31.4739H107.043Z" fill="white"/>
<path d="M119.233 30.3018V31.224H118.883C117.673 31.224 116.542 31.8407 115.697 32.9604C114.968 33.9259 114.515 35.1998 114.515 36.2865V42.4095H113.561V30.5725H114.515V33.2048C114.824 32.6089 115.231 32.0687 115.719 31.6066C116.598 30.7612 117.776 30.2931 119 30.3036L119.233 30.3018Z" fill="white"/>
<path d="M121.868 30.5723H120.914V42.4092H121.868V30.5723Z" fill="white"/>
<path d="M121.982 26.0251H120.799V27.7916H121.982V26.0251Z" fill="white"/>
<path d="M135.611 40.1776L135.464 40.3478C134.112 41.9187 132.527 42.6821 130.611 42.6821C127.26 42.6821 124.532 39.9144 124.532 36.513V36.4679C124.524 34.8493 125.154 33.2916 126.286 32.1265C126.848 31.5455 127.523 31.084 128.271 30.7698C129.018 30.4557 129.822 30.2954 130.634 30.2989C132.99 30.2989 134.358 31.4045 135.387 32.4865L135.551 32.6586L134.86 33.2988L134.699 33.1277C133.467 31.8284 132.173 31.224 130.611 31.224C129.93 31.2207 129.256 31.3563 128.63 31.6223C128.004 31.8883 127.439 32.2791 126.972 32.7704C126.025 33.7625 125.501 35.0792 125.51 36.4454V36.4905C125.51 39.3945 127.809 41.7551 130.634 41.7551C132.22 41.7551 133.532 41.1083 134.762 39.7207L134.924 39.5383L135.611 40.1776Z" fill="white"/>
<path d="M154.047 30.5723L148.561 42.4995H147.891L147.866 42.444L142.358 30.5723H143.408L143.433 30.6268L148.226 41.1034L153.022 30.5723H154.047Z" fill="white"/>
<path d="M165.918 36.5365C165.918 34.9769 165.436 33.4426 164.592 32.3286C163.589 31.0002 162.143 30.2989 160.411 30.2989C159.638 30.2909 158.871 30.4444 158.162 30.7494C157.453 31.0544 156.816 31.504 156.293 32.0691C155.251 33.1973 154.676 34.7522 154.676 36.4454V36.4905C154.676 40.078 157.184 42.6821 160.644 42.6821C162.578 42.6821 164.344 41.742 165.488 40.1024L165.623 39.9144L164.849 39.3719L164.712 39.5599C163.736 40.9156 162.186 41.7579 160.666 41.7579C160.025 41.7651 159.389 41.6463 158.794 41.4083C158.199 41.1703 157.657 40.8179 157.2 40.3713C156.301 39.4819 155.779 38.2701 155.691 36.8628H165.922L165.918 36.5365ZM160.39 31.224C161.011 31.2149 161.627 31.3455 162.19 31.606C162.754 31.8665 163.251 32.2501 163.644 32.7281C164.368 33.5855 164.814 34.7306 164.905 35.9631H155.692C155.9 33.1662 157.818 31.224 160.39 31.224Z" fill="white"/>
<path d="M178.746 35.7402V42.4094H177.791V35.7853C177.791 32.9283 176.244 31.2239 173.652 31.2239C171.229 31.2239 169.331 33.2668 169.331 35.8765V42.4094H168.376V25.3435H169.331V32.7789C169.775 32.0206 170.412 31.392 171.179 30.9565C171.946 30.5211 172.815 30.2942 173.699 30.2988C175.262 30.2988 176.555 30.8187 177.441 31.803C178.295 32.7563 178.746 34.1166 178.746 35.7402Z" fill="white"/>
<path d="M183.051 26.0251H181.868V27.7916H183.051V26.0251Z" fill="white"/>
<path d="M182.938 30.5723H181.983V42.4092H182.938V30.5723Z" fill="white"/>
<path d="M196.68 40.1776L196.533 40.3487C195.181 41.9187 193.597 42.6821 191.68 42.6821C188.329 42.6821 185.602 39.9144 185.602 36.513V36.4679C185.594 34.8494 186.223 33.2919 187.355 32.1265C187.917 31.5455 188.593 31.0839 189.34 30.7697C190.087 30.4556 190.891 30.2954 191.703 30.2989C194.059 30.2989 195.428 31.4045 196.457 32.4865L196.62 32.6586L195.931 33.2988L195.768 33.1277C194.541 31.8285 193.242 31.224 191.68 31.224C190.999 31.2208 190.325 31.3565 189.699 31.6227C189.073 31.8889 188.508 32.2799 188.041 32.7714C187.094 33.763 186.571 35.0794 186.579 36.4454V36.4905C186.579 39.3945 188.878 41.7551 191.703 41.7551C193.29 41.7551 194.602 41.1083 195.832 39.7207L195.993 39.5383L196.68 40.1776Z" fill="white"/>
<path d="M199.888 25.3435H198.934V42.4094H199.888V25.3435Z" fill="white"/>
<path d="M213.792 36.5365C213.792 34.9769 213.31 33.4426 212.466 32.3286C211.463 31.0002 210.017 30.2989 208.285 30.2989C207.512 30.2909 206.745 30.4444 206.036 30.7494C205.327 31.0544 204.69 31.504 204.167 32.0691C203.125 33.1973 202.55 34.7522 202.55 36.4454V36.4905C202.55 40.078 205.058 42.6821 208.518 42.6821C210.452 42.6821 212.218 41.742 213.362 40.1024L213.497 39.9144L212.723 39.3719L212.586 39.5599C211.61 40.9156 210.059 41.7579 208.54 41.7579C207.899 41.7651 207.263 41.6463 206.668 41.4083C206.073 41.1703 205.531 40.8179 205.074 40.3713C204.174 39.481 203.653 38.2701 203.566 36.8628H213.797L213.792 36.5365ZM208.264 31.224C208.885 31.2149 209.501 31.3455 210.064 31.606C210.628 31.8665 211.125 32.2501 211.518 32.7281C212.241 33.5855 212.688 34.7306 212.779 35.9631H203.571C203.775 33.1662 205.695 31.224 208.264 31.224Z" fill="white"/>
<path d="M224.376 39.3324V39.3775C224.376 41.2521 222.533 42.6134 219.993 42.6134C218.247 42.5919 216.561 41.9789 215.214 40.876L215.04 40.7322L215.626 39.9716L215.816 40.1296C217.008 41.1205 218.54 41.6892 220.015 41.6892C221.975 41.6892 223.398 40.7266 223.398 39.401V39.3549C223.398 37.8169 221.711 37.3412 219.925 36.8382L219.813 36.8072C217.365 36.1172 215.632 35.4788 215.632 33.5356V33.4896C215.632 31.6798 217.408 30.3674 219.855 30.3674C221.248 30.3674 222.792 30.8591 223.976 31.6836L224.165 31.8143L223.625 32.6181L223.426 32.477C222.384 31.7353 221.046 31.2934 219.853 31.2934C217.973 31.2934 216.608 32.2072 216.608 33.4679V33.5131C216.608 34.8424 218.178 35.3811 220.077 35.9009C222.431 36.5365 224.376 37.234 224.376 39.3324Z" fill="white"/>
<path d="M37.6071 33.4172C38.4265 30.1108 42.3142 26.7969 42.8172 21.521C43.4727 14.6037 39.9469 2.31543 22.7271 2.31543C5.50736 2.31543 2.96484 15.0051 2.96484 20.2998C2.96484 27.3798 8.02998 31.0679 8.03377 33.6165C8.16355 36.3428 5.27906 36.5036 5.43631 38.1761C5.56041 39.4875 9.30124 39.8081 11.8779 38.4139C11.4705 39.1952 10.8984 39.8927 10.1841 40.2866C8.85317 41.0199 7.77895 41.3715 7.77895 42.1847C7.77895 42.9979 11.7699 45.0605 15.8697 43.0534C17.0794 42.4611 17.9661 41.8256 18.6168 41.1985C18.6377 41.3396 18.6576 41.4665 18.6765 41.5746C18.8802 42.7384 19.5518 45.964 22.5026 45.964C25.4534 45.964 26.0559 43.1361 26.5485 41.4514C26.5873 41.3179 26.6252 41.1769 26.6621 41.0303C27.3319 41.7118 28.2659 42.4094 29.5855 43.0553C33.6853 45.0624 37.6762 43.0007 37.6762 42.1866C37.6762 41.3725 36.602 41.0218 35.2711 40.2885C34.5133 39.872 33.9193 39.1162 33.5082 38.2804C36.0867 39.8288 40.0606 39.5298 40.1884 38.178C40.3542 36.4641 37.3229 36.3344 37.6071 33.4172C37.6507 33.3853 37.5682 33.4501 37.6071 33.4172Z" fill="#FF48D8"/>
<path d="M15.0809 29.2958C17.6659 29.2958 19.7615 27.2161 19.7615 24.6507C19.7615 22.0853 17.6659 20.0056 15.0809 20.0056C12.4959 20.0056 10.4004 22.0853 10.4004 24.6507C10.4004 27.2161 12.4959 29.2958 15.0809 29.2958Z" fill="white"/>
<path d="M15.3981 28.6555C17.2188 28.6555 18.6947 27.1908 18.6947 25.3839C18.6947 23.577 17.2188 22.1123 15.3981 22.1123C13.5775 22.1123 12.1016 23.577 12.1016 25.3839C12.1016 27.1908 13.5775 28.6555 15.3981 28.6555Z" fill="url(#paint0_linear_2032_25931)"/>
<path d="M13.478 24.3808C13.8882 24.3808 14.2207 24.0508 14.2207 23.6438C14.2207 23.2367 13.8882 22.9067 13.478 22.9067C13.0679 22.9067 12.7354 23.2367 12.7354 23.6438C12.7354 24.0508 13.0679 24.3808 13.478 24.3808Z" fill="white"/>
<path d="M29.7553 28.9349C32.1394 28.9349 34.072 27.0168 34.072 24.6508C34.072 22.2848 32.1394 20.3667 29.7553 20.3667C27.3712 20.3667 25.4385 22.2848 25.4385 24.6508C25.4385 27.0168 27.3712 28.9349 29.7553 28.9349Z" fill="white"/>
<path d="M29.7473 28.6212C31.5585 28.6212 33.0268 27.164 33.0268 25.3665C33.0268 23.569 31.5585 22.1118 29.7473 22.1118C27.9361 22.1118 26.4678 23.569 26.4678 25.3665C26.4678 27.164 27.9361 28.6212 29.7473 28.6212Z" fill="url(#paint1_linear_2032_25931)"/>
<path d="M28.0557 24.2465C28.4747 24.2465 28.8144 23.9094 28.8144 23.4935C28.8144 23.0776 28.4747 22.7405 28.0557 22.7405C27.6366 22.7405 27.2969 23.0776 27.2969 23.4935C27.2969 23.9094 27.6366 24.2465 28.0557 24.2465Z" fill="white"/>
<path d="M34.4209 16.0757C34.5355 16.1237 34.6302 16.1697 34.7325 16.2195C34.8348 16.2694 34.9333 16.323 35.0338 16.3803C35.1375 16.4396 35.238 16.5043 35.335 16.574C35.4539 16.6557 35.5599 16.7545 35.6495 16.8673C35.6946 16.9251 35.7191 16.9962 35.719 17.0693C35.7188 17.1424 35.6942 17.2134 35.6489 17.2711C35.6036 17.3288 35.5402 17.3698 35.4688 17.3878C35.3974 17.4057 35.322 17.3996 35.2545 17.3702L35.1256 17.3138C35.0991 17.3026 35.0252 17.265 34.9485 17.2377C34.8718 17.2104 34.7846 17.1822 34.6946 17.1587C34.6046 17.1352 34.5118 17.1136 34.418 17.0948C34.3242 17.076 34.2286 17.0581 34.1405 17.0478C34.0048 17.0311 33.8814 16.9616 33.7973 16.8546C33.7133 16.7475 33.6756 16.6118 33.6924 16.4771C33.7092 16.3425 33.7793 16.22 33.8871 16.1366C33.9949 16.0532 34.1317 16.0158 34.2674 16.0325C34.3129 16.0386 34.3574 16.0503 34.4 16.0672L34.4209 16.0757Z" fill="#100030"/>
<path d="M11.1494 17.5497C11.0632 17.5497 10.96 17.5657 10.8652 17.5779C10.7705 17.5901 10.6758 17.6052 10.581 17.623C10.4863 17.6409 10.3916 17.6625 10.312 17.686C10.2408 17.7065 10.1712 17.732 10.1036 17.7622L10.024 17.7988C9.97292 17.8224 9.91542 17.8286 9.86039 17.8165C9.80537 17.8044 9.75588 17.7747 9.71957 17.7319C9.68326 17.6891 9.66214 17.6357 9.65947 17.5798C9.6568 17.524 9.67273 17.4688 9.7048 17.4228C9.78525 17.312 9.8809 17.213 9.98899 17.1285C10.0837 17.0514 10.1784 16.9828 10.2732 16.9198C10.3679 16.8568 10.4626 16.7967 10.564 16.7403C10.6653 16.6839 10.7534 16.6312 10.869 16.5776L10.8984 16.5635C10.9605 16.5311 11.0285 16.5113 11.0984 16.5055C11.1683 16.4997 11.2387 16.5078 11.3053 16.5296C11.372 16.5513 11.4336 16.5861 11.4864 16.632C11.5392 16.6778 11.5822 16.7337 11.6128 16.7964C11.6434 16.859 11.6609 16.9272 11.6644 16.9967C11.6679 17.0663 11.6573 17.1358 11.6332 17.2012C11.609 17.2666 11.5719 17.3265 11.5239 17.3773C11.4759 17.4281 11.4182 17.4688 11.354 17.4971C11.2902 17.5284 11.2205 17.5464 11.1494 17.5497Z" fill="#100030"/>
<path d="M20.745 31.9369C20.8112 32.0081 20.889 32.0679 20.9752 32.1136C21.0776 32.1701 21.1855 32.216 21.2973 32.2509C21.5643 32.332 21.8434 32.367 22.1223 32.3543C22.4192 32.3415 22.7123 32.2828 22.991 32.1804C23.115 32.1364 23.2348 32.0817 23.3491 32.0168L23.4713 31.9453C23.5101 31.9237 23.5272 31.9152 23.566 31.8964L24.0965 31.6342C24.1789 31.5937 24.2741 31.5873 24.3613 31.6164C24.4485 31.6455 24.5205 31.7076 24.5616 31.7893C24.578 31.8232 24.5892 31.8593 24.5948 31.8964C24.6199 32.0797 24.6024 32.2662 24.5436 32.4417C24.5294 32.4821 24.5161 32.5282 24.4991 32.5649L24.4451 32.6758C24.4084 32.7466 24.3663 32.8145 24.3191 32.8789C24.1495 33.1099 23.9378 33.3073 23.6948 33.4608C23.2431 33.7475 22.7226 33.9097 22.1868 33.9308C21.6312 33.9615 21.0796 33.821 20.6076 33.5285C20.3498 33.3682 20.1321 33.1519 19.9711 32.8958C19.7918 32.6099 19.7243 32.2687 19.7816 31.9369C19.7983 31.8552 19.8376 31.7798 19.895 31.7191C19.9525 31.6584 20.0258 31.6147 20.1069 31.5931C20.1879 31.5714 20.2734 31.5726 20.3539 31.5964C20.4343 31.6203 20.5064 31.6659 20.5622 31.7282L20.745 31.9369Z" fill="#100030"/>
<defs>
<linearGradient id="paint0_linear_2032_25931" x1="18.5166" y1="25.3839" x2="12.0059" y2="25.3839" gradientUnits="userSpaceOnUse">
<stop/>
<stop offset="0.45" stop-color="#100030"/>
<stop offset="0.84" stop-color="#180070"/>
<stop offset="1"/>
</linearGradient>
<linearGradient id="paint1_linear_2032_25931" x1="1860.23" y1="1778.46" x2="2301.52" y2="1778.46" gradientUnits="userSpaceOnUse">
<stop/>
<stop offset="0.45" stop-color="#100030"/>
<stop offset="0.84" stop-color="#180070"/>
<stop offset="1"/>
</linearGradient>
</defs>
</svg>
